<svg width="17" height="18" viewBox="0 0 17 18" fill="none" xmlns="http://www.w3.org/2000/svg">
<path d="M8.21116 11.6667C5.39331 11.6667 2.88742 13.0272 1.29204 15.1386C0.948673 15.5931 0.776988 15.8203 0.782604 16.1274C0.786943 16.3646 0.935923 16.6639 1.12259 16.8104C1.36421 17 1.69904 17 2.3687 17H14.0536C14.7233 17 15.0581 17 15.2997 16.8104C15.4864 16.6639 15.6354 16.3646 15.6397 16.1274C15.6453 15.8203 15.4736 15.5931 15.1303 15.1386C13.5349 13.0272 11.029 11.6667 8.21116 11.6667Z" stroke="#333333" stroke-linecap="round" stroke-linejoin="round"/>
<path d="M8.21116 9C10.4203 9 12.2112 7.20914 12.2112 5C12.2112 2.79086 10.4203 1 8.21116 1C6.00202 1 4.21116 2.79086 4.21116 5C4.21116 7.20914 6.00202 9 8.21116 9Z" stroke="#333333" stroke-linecap="round" stroke-linejoin="round"/>
</svg>
