<svg width="21" height="21" viewBox="0 0 21 21" fill="none" xmlns="http://www.w3.org/2000/svg">
<path d="M14.8656 7.5V4.5C14.8656 2.29086 12.9111 0.5 10.5 0.5C8.08893 0.5 6.13437 2.29086 6.13437 4.5V7.5M1.32345 8.85197L0.668603 15.252C0.482412 17.0717 0.389316 17.9815 0.718859 18.6843C1.00835 19.3016 1.51566 19.8121 2.15948 20.1338C2.89237 20.5 3.88974 20.5 5.88449 20.5H15.1155C17.1103 20.5 18.1076 20.5 18.8405 20.1338C19.4843 19.8121 19.9916 19.3016 20.2811 18.6843C20.6107 17.9815 20.5176 17.0717 20.3314 15.252L19.6766 8.85197C19.5193 7.31535 19.4407 6.54704 19.0636 5.96616C18.7314 5.45459 18.2406 5.04511 17.6537 4.78985C16.9873 4.5 16.1451 4.5 14.4607 4.5L6.53933 4.5C4.8549 4.5 4.01269 4.5 3.34628 4.78984C2.75937 5.04511 2.26861 5.45458 1.93644 5.96616C1.55929 6.54704 1.48067 7.31535 1.32345 8.85197Z" stroke="white" stroke-linecap="round" stroke-linejoin="round"/>
</svg>
