<svg width="42" height="40" viewBox="0 0 42 40" fill="none" xmlns="http://www.w3.org/2000/svg">
<path d="M41 20V26.2C41 30.6804 41 32.9206 40.1281 34.6319C39.3611 36.1372 38.1372 37.3611 36.6319 38.1281C34.9206 39 32.6804 39 28.2 39H13.8C9.31958 39 7.07937 39 5.36808 38.1281C3.86278 37.3611 2.63893 36.1372 1.87195 34.6319C1 32.9206 1 30.6804 1 26.2V15.8C1 11.3196 1 9.07937 1.87195 7.36808C2.63893 5.86278 3.86278 4.63893 5.36808 3.87195C7.07937 3 9.31958 3 13.8 3H22M35 13V1M29 7H41M29 21C29 25.4183 25.4183 29 21 29C16.5817 29 13 25.4183 13 21C13 16.5817 16.5817 13 21 13C25.4183 13 29 16.5817 29 21Z" stroke="#333333" stroke-width="2" stroke-linecap="round" stroke-linejoin="round"/>
</svg>
