<svg width="18" height="18" viewBox="0 0 18 18" fill="none" xmlns="http://www.w3.org/2000/svg">
<path d="M0.871582 1H1.91651C2.11333 1 2.21174 1 2.29093 1.03619C2.36072 1.06809 2.41986 1.11938 2.4613 1.18396C2.50833 1.25723 2.52225 1.35466 2.55008 1.54949L2.92872 4.2M2.92872 4.2L3.77024 10.3851C3.87703 11.17 3.93042 11.5625 4.11806 11.8579C4.2834 12.1182 4.52045 12.3252 4.80067 12.4539C5.11867 12.6 5.51474 12.6 6.30687 12.6H13.1532C13.9072 12.6 14.2842 12.6 14.5923 12.4643C14.864 12.3447 15.0971 12.1519 15.2654 11.9074C15.4563 11.6301 15.5269 11.2597 15.668 10.519L16.7269 4.95975C16.7765 4.69905 16.8014 4.56869 16.7654 4.4668C16.7338 4.37742 16.6715 4.30215 16.5896 4.25441C16.4963 4.2 16.3636 4.2 16.0982 4.2H2.92872ZM7.27158 16.2C7.27158 16.6418 6.91341 17 6.47158 17C6.02975 17 5.67158 16.6418 5.67158 16.2C5.67158 15.7582 6.02975 15.4 6.47158 15.4C6.91341 15.4 7.27158 15.7582 7.27158 16.2ZM13.6716 16.2C13.6716 16.6418 13.3134 17 12.8716 17C12.4298 17 12.0716 16.6418 12.0716 16.2C12.0716 15.7582 12.4298 15.4 12.8716 15.4C13.3134 15.4 13.6716 15.7582 13.6716 16.2Z" stroke="#333333" stroke-linecap="round" stroke-linejoin="round"/>
</svg>
