<svg width="18" height="18" viewBox="0 0 18 18" fill="none" xmlns="http://www.w3.org/2000/svg">
<path d="M1 1H2.05079C2.2487 1 2.34766 1 2.4273 1.03619C2.49748 1.06809 2.55695 1.11938 2.59863 1.18396C2.64592 1.25723 2.65992 1.35466 2.6879 1.54949L3.06867 4.2M3.06867 4.2L3.9149 10.3851C4.02229 11.17 4.07598 11.5625 4.26467 11.8579C4.43094 12.1182 4.66931 12.3252 4.9511 12.4539C5.27089 12.6 5.66917 12.6 6.46574 12.6H13.3504C14.1087 12.6 14.4878 12.6 14.7977 12.4643C15.0708 12.3447 15.3052 12.1519 15.4745 11.9074C15.6665 11.6301 15.7374 11.2597 15.8793 10.519L16.9441 4.95975C16.9941 4.69905 17.019 4.56869 16.9829 4.4668C16.9511 4.37742 16.8885 4.30215 16.8061 4.25441C16.7122 4.2 16.5788 4.2 16.3119 4.2H3.06867ZM7.43586 16.2C7.43586 16.6418 7.07568 17 6.63138 17C6.18708 17 5.8269 16.6418 5.8269 16.2C5.8269 15.7582 6.18708 15.4 6.63138 15.4C7.07568 15.4 7.43586 15.7582 7.43586 16.2ZM13.8717 16.2C13.8717 16.6418 13.5115 17 13.0672 17C12.6229 17 12.2628 16.6418 12.2628 16.2C12.2628 15.7582 12.6229 15.4 13.0672 15.4C13.5115 15.4 13.8717 15.7582 13.8717 16.2Z" stroke="#333333" stroke-linecap="round" stroke-linejoin="round"/>
</svg>
