<svg width="15" height="17" viewBox="0 0 15 17" fill="none" xmlns="http://www.w3.org/2000/svg">
<path d="M7.32853 9.3C8.65401 9.3 9.72853 8.22548 9.72853 6.9C9.72853 5.57452 8.65401 4.5 7.32853 4.5C6.00304 4.5 4.92853 5.57452 4.92853 6.9C4.92853 8.22548 6.00304 9.3 7.32853 9.3Z" stroke="#333333" stroke-linecap="round" stroke-linejoin="round"/>
<path d="M5.06573 14.2368C5.84615 15.0385 6.23636 15.4393 6.7003 15.5928C7.10128 15.7255 7.55578 15.7255 7.95676 15.5928C8.4207 15.4393 8.81091 15.0385 9.59132 14.2368C11.8818 11.884 13.7285 9.58513 13.7285 6.9C13.7285 3.36538 10.8632 0.5 7.32853 0.5C3.79391 0.5 0.928528 3.36538 0.928528 6.9C0.928528 9.58513 2.77522 11.884 5.06573 14.2368Z" stroke="#333333" stroke-linecap="round" stroke-linejoin="round"/>
</svg>
