<svg width="42" height="41" viewBox="0 0 42 41" fill="none" xmlns="http://www.w3.org/2000/svg">
<path d="M35.5404 1.71005C38.9763 6.48638 41 12.3467 41 18.6797C41 25.0128 38.9763 30.8731 35.5404 35.6494M30.6856 8.98278C32.6029 11.7315 33.7273 15.0743 33.7273 18.6797C33.7273 22.2852 32.6029 25.628 30.6856 28.3767M19.5074 2.59656L11.833 10.2709C11.4138 10.6902 11.2041 10.8999 10.9595 11.0498C10.7426 11.1827 10.5061 11.2807 10.2587 11.34C9.97974 11.407 9.68327 11.407 9.09032 11.407H4.87879C3.52108 11.407 2.84223 11.407 2.32366 11.6712C1.86751 11.9037 1.49665 12.2745 1.26423 12.7307C1 13.2493 1 13.9281 1 15.2858V22.0737C1 23.4314 1 24.1102 1.26423 24.6288C1.49665 25.085 1.86751 25.4558 2.32366 25.6882C2.84223 25.9525 3.52108 25.9525 4.87879 25.9525H9.09032C9.68327 25.9525 9.97974 25.9525 10.2587 26.0195C10.5061 26.0788 10.7426 26.1768 10.9595 26.3097C11.2041 26.4596 11.4138 26.6693 11.833 27.0885L19.5074 34.7629C20.5459 35.8014 21.0652 36.3207 21.511 36.3558C21.8978 36.3862 22.2758 36.2296 22.5278 35.9346C22.8182 35.5945 22.8182 34.8602 22.8182 33.3916V3.96792C22.8182 2.49927 22.8182 1.76495 22.5278 1.42492C22.2758 1.12988 21.8978 0.973301 21.511 1.00374C21.0652 1.03883 20.5459 1.55807 19.5074 2.59656Z" stroke="#333333" stroke-width="2" stroke-linecap="round" stroke-linejoin="round"/>
</svg>
