<svg width="40" height="42" viewBox="0 0 40 42" fill="none" xmlns="http://www.w3.org/2000/svg">
<path d="M6.98079 21.3749C5.64221 20.0375 4.58033 18.4494 3.85583 16.7014C3.13133 14.9533 2.75842 13.0797 2.75842 11.1874C2.75842 9.29523 3.13133 7.42157 3.85583 5.67354C4.58033 3.92552 5.64221 2.33742 6.98079 1M11.1616 17.1939C9.57355 15.6032 8.68158 13.4474 8.68158 11.1996C8.68158 8.95188 9.57355 6.796 11.1616 5.20532M17.6817 19.7449L13.2562 24.1704C11.9157 25.5103 11.1623 27.3279 11.1617 29.2233V37.6749M27.4616 40.9349H34.7966C35.445 40.9349 36.0669 40.6773 36.5255 40.2187C36.984 39.7602 37.2416 39.1383 37.2416 38.4899V10.78C37.2416 10.1316 36.984 9.50967 36.5255 9.05115C36.0669 8.59263 35.445 8.33503 34.7966 8.33503H20.1267C19.4782 8.33503 18.8563 8.59263 18.3978 9.05115C17.9393 9.50967 17.6817 10.1316 17.6817 10.78V26.5339C17.6798 26.8576 17.7744 27.1746 17.9533 27.4444C18.1323 27.7142 18.3876 27.9246 18.6866 28.0488C18.9856 28.1729 19.3148 28.2052 19.6323 28.1415C19.9497 28.0778 20.241 27.9211 20.469 27.6912L24.1038 24.0644C24.5661 23.5816 25.1948 23.2927 25.8623 23.2564C26.5297 23.2201 27.186 23.439 27.698 23.8689C27.9552 24.0997 28.1626 24.3807 28.3076 24.6944C28.4526 25.0082 28.5322 25.3482 28.5413 25.6938C28.5505 26.0393 28.4891 26.3831 28.3609 26.7041C28.2327 27.0251 28.0404 27.3166 27.7958 27.5608L25.1144 30.2421C24.3656 30.9907 23.7726 31.8804 23.3697 32.8596C22.9668 33.8389 22.7621 34.8882 22.7673 35.9471C22.7565 37.2895 22.2162 38.5735 21.2639 39.5197C20.3116 40.4659 19.0242 40.998 17.6817 41.0001M26.6466 37.6748H28.2766M24.2016 11.595H30.7216" stroke="#000" stroke-width="2"/>
</svg>

