<svg width="18" height="17" viewBox="0 0 18 17" fill="none" xmlns="http://www.w3.org/2000/svg">
<path d="M10.619 3.6746C11.3942 3.82584 12.1066 4.20496 12.6651 4.76344C13.2236 5.32191 13.6027 6.03433 13.7539 6.80952M10.619 0.5C12.2295 0.678917 13.7314 1.40014 14.8779 2.54524C16.0245 3.69035 16.7476 5.19127 16.9285 6.80158M7.58488 9.91512C6.63124 8.96149 5.87824 7.88321 5.32586 6.73271C5.27835 6.63375 5.25459 6.58427 5.23634 6.52166C5.17148 6.29916 5.21807 6.02594 5.353 5.8375C5.39096 5.78448 5.43633 5.73912 5.52705 5.64839C5.80452 5.37093 5.94325 5.23219 6.03395 5.09269C6.37601 4.56658 6.37601 3.88835 6.03395 3.36224C5.94325 3.22274 5.80452 3.08401 5.52705 2.80654L5.37239 2.65188C4.95061 2.2301 4.73972 2.01921 4.51323 1.90465C4.06279 1.67682 3.53083 1.67682 3.08039 1.90465C2.85389 2.01921 2.643 2.2301 2.22122 2.65188L2.09612 2.77699C1.67578 3.19732 1.46561 3.40749 1.3051 3.69323C1.12699 4.0103 0.998925 4.50275 1.00001 4.86642C1.00098 5.19416 1.06456 5.41814 1.1917 5.86611C1.87501 8.27357 3.16428 10.5453 5.0595 12.4405C6.95472 14.3357 9.22643 15.625 11.6339 16.3083C12.0819 16.4354 12.3058 16.499 12.6336 16.5C12.9972 16.5011 13.4897 16.373 13.8068 16.1949C14.0925 16.0344 14.3027 15.8242 14.723 15.4039L14.8481 15.2788C15.2699 14.857 15.4808 14.6461 15.5953 14.4196C15.8232 13.9692 15.8232 13.4372 15.5953 12.9868C15.4808 12.7603 15.2699 12.5494 14.8481 12.1276L14.6935 11.9729C14.416 11.6955 14.2773 11.5568 14.1378 11.466C13.6117 11.124 12.9334 11.124 12.4073 11.466C12.2678 11.5568 12.1291 11.6955 11.8516 11.9729C11.7609 12.0637 11.7155 12.109 11.6625 12.147C11.4741 12.2819 11.2008 12.3285 10.9783 12.2637C10.9157 12.2454 10.8662 12.2217 10.7673 12.1741C9.61679 11.6218 8.53851 10.8688 7.58488 9.91512Z" stroke="#333333" stroke-linecap="round" stroke-linejoin="round"/>
</svg>
